PathFileType	4	(X/Y/Z)	Patient4_TMGait_0pt2_03_left_21.trc.trc
DataRate	CameraRate	NumFrames	NumMarkers	Units	OrigDataRate	OrigDataStartFrame	OrigNumFrames
49.122807017544	49.122807017544	5	33	mm	49.122807017544	18	       141
Frame#	Time	Sacral			L.Shoulder			Chest			R.Shoulder			Neck			R.ASIS			L.ASIS			R.Thigh.Superior			R.Thigh.Lateral			R.Thigh.Inferior			R.Patella			L.Thigh.Superior			L.Thigh.Lateral			L.Thigh.Inferior			L.Patella			L.Shank.Superior			L.Shank.Lateral			L.Shank.Inferior			R.Shank.Superior			R.Shank.Lateral			R.Shank.Inferior			R.Heel			R.Midfoot.Superior			R.Midfoot.Lateral			R.Toe			L.Heel			L.Midfoot.Lateral			L.Midfoot.Superior			L.Toe			L.Elbow			L.Wrist			R.Elbow			R.Wrist			
		X1	Y1	Z1	X2	Y2	Z2	X3	Y3	Z3	X4	Y4	Z4	X5	Y5	Z5	X6	Y6	Z6	X7	Y7	Z7	X8	Y8	Z8	X9	Y9	Z9	X10	Y10	Z10	X11	Y11	Z11	X12	Y12	Z12	X13	Y13	Z13	X14	Y14	Z14	X15	Y15	Z15	X16	Y16	Z16	X17	Y17	Z17	X18	Y18	Z18	X19	Y19	Z19	X20	Y20	Z20	X21	Y21	Z21	X22	Y22	Z22	X23	Y23	Z23	X24	Y24	Z24	X25	Y25	Z25	X26	Y26	Z26	X27	Y27	Z27	X28	Y28	Z28	X29	Y29	Z29	X30	Y30	Z30	X31	Y31	Z31	X32	Y32	Z32	X33	Y33	Z33	

18	44.306071428571	891.942289919152	1007.762380618670	646.448463067477	1030.915582051749	1437.080732751988	445.123926783575	1170.712244828940	1359.356433516208	570.452034471753	1140.978332594914	1433.694682924223	758.519007368959	1055.487542240039	1493.544455810642	601.325667877746	1136.031440276073	930.618426842027	708.933451737452	1068.074798338850	970.248337051435	444.910392933680	1151.418590011842	725.840615062736	659.865302182170	1078.074006892018	615.844667379279	730.395145692430	1131.476311898608	564.372809532775	633.255074186652	1125.317775876279	471.290658544788	635.499579169183	1140.861369887493	775.820250923456	455.086572333185	1071.071060358347	647.272630503172	367.117588958511	1180.728895338503	589.172218908903	419.583330824767	1201.488438936350	522.087007587122	408.654646405099	1177.291532398683	451.275395788518	390.211033703459	1096.002436490802	337.720259556398	322.470112992791	1169.985354513638	221.749327643281	362.714259614422	1078.476479818202	387.249409994801	645.673539242017	1003.582493405945	295.683144840354	722.418140152487	1006.515538354370	200.171344450229	649.706363527010	838.772743978742	51.753928966080	648.502842170634	1016.598655782363	97.253122834321	653.198366070733	933.517703031573	40.333497071704	705.925299304834	1136.713393288133	39.072455759272	659.032260951269	1057.716884754929	62.094975987386	381.901993193121	1133.788038551725	52.503027562836	304.916900273398	1219.810249528985	111.159559955683	330.383963531843	1344.141879819182	53.535670977896	307.474548179995	853.193098728372	1132.978023451880	373.007911953288	775.402677843877	889.942941399544	439.588976629029	1373.971377979070	1202.759719172228	839.217885698515	1499.091369909330	1382.682678932168	723.306765183383	
19	44.326428571429	891.926901716366	1007.542155386768	644.211694563236	1028.546298490941	1436.836899179879	442.460072099144	1169.322126128963	1359.759390040551	567.080070726048	1140.129959158935	1433.887007273559	755.244912720209	1053.300941966230	1493.359273479382	598.794681079543	1136.044653858880	930.878450459909	706.600194477714	1067.731634481300	969.635626771583	442.539897858099	1149.462787479810	725.313805902819	658.723053008761	1074.891704791339	616.105701530338	729.823229963989	1127.613660016481	563.806473071263	633.061848389125	1120.440075649553	471.050669194086	635.650074548537	1139.128611430107	773.748549189746	452.188620156340	1066.913531911522	645.163420031328	365.795447401134	1176.941316136225	586.979521874829	416.960555820695	1196.781995608443	520.385915420561	407.103471046480	1174.015003003157	449.756536916885	389.016078662271	1094.523431329008	334.732448259121	321.814307759944	1170.234813683980	220.089917082954	362.697661328964	1073.832599586150	387.147727316508	645.817573209416	998.858499162436	295.615979420288	722.590184555329	1002.152049446724	200.048464658253	649.886162576804	834.533648534789	51.303574134956	648.534729457098	1012.410418260631	97.171822407664	653.226819101834	929.318597818463	40.100926048651	705.957932916377	1132.541036056971	39.140306296691	659.058618941109	1059.982196501091	59.662915011128	382.409678226625	1136.458817208936	50.145189701711	305.824298060882	1221.827496974168	109.548779041902	331.317828958898	1346.633353681366	52.747213367217	309.433222818155	850.258635293457	1133.045134995715	371.322588662572	772.783464875838	890.042165666082	438.642439653109	1376.509744406343	1206.577114176917	832.900642848396	1496.805789261576	1389.116055250715	716.327295859209	
20	44.346785714286	891.890207190562	1006.869955847243	641.684548259425	1026.427871526491	1436.093676091649	439.315941672716	1168.000410171454	1359.701313488974	563.444768994730	1139.107918675797	1433.657977940434	751.661919306242	1051.217570890571	1492.758775269097	595.832699345323	1136.110328888848	930.837714970334	704.148792099132	1067.489482801522	968.479413881177	440.018217407741	1147.838006900345	724.569933707573	657.349022674122	1072.100316006666	616.081800074141	728.940429867800	1124.156796485198	563.032727645321	632.527430658226	1116.000689333481	470.528089798408	635.420106288181	1137.810647616009	771.342808009594	449.347758070426	1063.340984563676	642.649065205850	364.669833675238	1173.794665520229	584.491152038936	414.650847965371	1192.614554142743	518.131373776371	405.771455016313	1170.866594905720	447.653457337448	388.014437792842	1092.370696378135	331.679337139399	321.615074394480	1169.151214704891	217.985685634595	363.054003482453	1069.519127346444	386.778059051391	645.652892609617	994.394391770817	295.396802361545	722.516071233143	997.891695667565	199.744231134264	649.898065375687	830.282095979613	50.757669237191	648.544276313467	1008.183304147183	97.066336297929	653.215650317920	925.106033259136	39.837835336562	705.979227258580	1128.362392899927	39.226166607653	659.093445182564	1060.182138867562	56.985007741683	383.425694494807	1136.880457164390	47.882250486145	307.005516965385	1221.682173802251	107.876165306092	332.603126366244	1346.902772631931	51.981854900854	311.159274469921	848.091982066537	1132.316832973610	368.807700246778	771.021856317854	889.197178375157	436.388821956066	1377.987497038335	1208.977344352045	826.832412648839	1494.510671307947	1393.503152370035	709.811512248060	
21	44.367142857143	891.831074454382	1005.841106377393	638.893779246210	1024.571768506151	1434.943521132698	435.710342811720	1166.774449525286	1359.251273758200	559.540014016436	1137.982999619697	1433.085309396488	747.767870426149	1049.259103158536	1491.829107822949	592.439870191784	1136.220267090186	930.541888770778	701.550335569073	1067.316007187764	966.889199498529	437.331612906223	1146.521783327023	723.651333396619	655.705438419407	1069.703992027586	615.816095696619	727.730724980386	1121.105595961334	562.089161045001	631.626531691122	1112.010581089887	469.760277533168	634.797279176564	1136.869143347340	768.710668566364	446.565513286005	1060.381259692923	639.880375280007	363.652680654264	1171.264507186796	581.812176182283	412.620128574358	1189.009278771506	515.471115622596	404.590379081362	1167.904914055454	445.103924173549	387.132515547802	1089.708748634666	328.602778752979	321.708796108453	1166.974420452022	215.498960413105	363.649168465931	1065.544086885483	386.182922895945	645.175137970830	990.206238075014	295.067481659696	722.199534305646	993.740028715592	199.297066372451	649.747572389232	826.028998197476	50.168941000330	648.539616617617	1003.930632073722	96.948854703711	653.174244700422	920.888759449303	39.566070845487	705.994691259344	1124.181746796571	39.321833063662	659.134010269955	1058.644724928059	54.052377186961	384.737394753580	1135.419819527326	45.692618968426	308.283464858872	1219.707948840372	106.172993073225	334.093734940057	1345.334123069501	51.304552977622	312.596340638546	846.747393766520	1130.865145355975	365.453167283363	770.278456600763	887.447523209866	432.813146614950	1378.534938461798	1210.025198392431	821.014534770261	1492.269105758148	1395.985540313454	703.682290386750	
22	44.387500000000	891.746606997840	1004.585602381859	635.862255154166	1022.987642656598	1433.511408717163	431.675304117543	1165.672125155493	1358.510173357610	555.367216387446	1136.830625585800	1432.276357532258	743.568604195263	1047.446773542586	1490.684396987868	588.624247784425	1136.356074138776	930.061450324719	698.776067156737	1067.180491372648	965.014287927189	434.464749132535	1145.470063338325	722.620696472667	653.769908876375	1067.680156906323	615.375988995118	726.194844621002	1118.441066319715	561.032491607153	630.359202995552	1108.461637765695	468.809181418589	633.798447712504	1136.260812917579	766.004897843504	443.821326530067	1058.041790846872	637.041487481501	362.637514193573	1169.317585178839	579.088955944185	410.791567963047	1185.977668911365	512.597283785571	403.470613297738	1165.193727551684	442.292005223165	386.282189372782	1086.737030215354	325.594231361278	321.919936294507	1163.985689378432	212.763946984357	364.341461183411	1061.902126646761	385.428309334521	644.401953004640	986.295971145773	294.689297507503	721.660022364044	989.703254816323	198.764488651559	649.452718405655	821.788231789526	49.607048241405	648.529192629723	999.673894349384	96.834926218174	653.113532546783	916.678023871941	39.315078327959	706.009622135282	1120.005641890056	39.416092004588	659.178490633897	1055.747780940868	50.968810265261	386.143618680056	1132.494516256721	43.608827136654	309.503353015561	1216.303307948751	104.506920216353	335.634895915379	1342.350232210249	50.765301335228	313.713787498835	846.249039087800	1128.814441969337	361.270676582856	770.686815016557	884.891039921025	427.923700486664	1378.297577774493	1209.861005149194	815.429167922151	1490.149917804825	1396.764129100006	697.853901732225	
